<svg width="22" height="24" viewBox="0 0 22 24" fill="none" xmlns="http://www.w3.org/2000/svg">
<path d="M6.75 9C7.7165 9 8.5 9.7835 8.5 10.75C8.5 11.7165 7.7165 12.5 6.75 12.5C5.7835 12.5 5 11.7165 5 10.75C5 9.7835 5.7835 9 6.75 9ZM12.831 15.0067C13.2415 14.6372 13.8738 14.6705 14.2433 15.081C14.6128 15.4915 14.5795 16.1238 14.169 16.4933C12.4251 18.0628 10.4932 18.0628 8.76559 17.1299C8.34154 16.9009 8.02479 16.6677 7.83104 16.4933C7.42053 16.1238 7.38725 15.4915 7.75671 15.081C8.09774 14.7021 8.66273 14.6446 9.07052 14.9286L9.16896 15.0067C9.25298 15.0823 9.4455 15.2241 9.71589 15.3701C10.7661 15.9372 11.7972 15.9372 12.831 15.0067ZM11 0C13.9354 0 16.3569 1.00761 18.5953 3.08629C20.7707 5.10649 22 7.87022 22 10.7621L21.9812 19.3633C21.8292 21.4251 20.3527 22.9416 18.3368 22.9416C17.569 22.9416 17.0388 22.7687 16.3226 22.3909C16.1821 22.3163 16.1188 22.2828 16.0616 22.2534L15.9283 22.188C15.6802 22.0728 15.5339 22.0504 15.3195 22.0864C15.1727 22.1111 15.0163 22.1934 14.7645 22.388C14.6676 22.463 14.2884 22.7749 14.2325 22.8196L14.036 22.9723C13.1228 23.6597 12.2513 24 11 24C9.66285 24 8.74546 23.6074 7.75691 22.8231L7.16005 22.3428C6.94121 22.178 6.80187 22.1069 6.68051 22.0864C6.43034 22.0444 6.27295 22.0819 5.9384 22.2534L5.445 22.5093C4.84042 22.805 4.34566 22.9416 3.66321 22.9416C1.65229 22.9416 0.116205 21.4303 0.0160675 19.2916L0 10.7602C0 7.87022 1.22925 5.10649 3.4047 3.08629C5.59106 1.05594 8.1006 0 11 0ZM11 2C8.62365 2 6.59386 2.85408 4.76565 4.55182C2.99389 6.19715 2 8.43172 2 10.7583L2.01495 19.2425C2.06415 20.2825 2.734 20.9416 3.66321 20.9416C4.04459 20.9416 4.28996 20.8616 4.74445 20.6219L5.02588 20.4738C5.70944 20.1233 6.27066 19.9894 7.01218 20.1141C7.50408 20.1969 7.91103 20.4046 8.36337 20.7453C8.5113 20.8567 8.98015 21.2406 9.00001 21.2563L9.17749 21.3923C9.75857 21.8206 10.2464 22 11 22C11.8287 22 12.3215 21.7872 12.983 21.258C13.0178 21.2301 13.4156 20.9029 13.5413 20.8057L13.722 20.6711C14.1385 20.3738 14.5231 20.1923 14.9878 20.1141C15.7293 19.9894 16.2906 20.1233 16.9741 20.4738L17.4169 20.7044C17.7735 20.8803 18.0031 20.9416 18.3368 20.9416C19.2589 20.9416 19.9086 20.2743 19.9839 19.2879L20 10.7602C20 8.43172 19.0061 6.19715 17.2343 4.55182C15.3559 2.80744 13.4155 2 11 2ZM13.8952 9.87809C14.9284 9.3223 16.1195 9.3223 17.169 10.2632C17.5795 10.6313 17.6128 11.2612 17.2433 11.6702C16.8738 12.0792 16.2415 12.1123 15.831 11.7442L15.7306 11.662C15.4329 11.4418 15.1657 11.459 14.8455 11.6313C14.7487 11.6833 14.6835 11.7312 14.669 11.7442L14.5705 11.8221C14.1627 12.105 13.5977 12.0477 13.2567 11.6702C12.8872 11.2612 12.9205 10.6313 13.331 10.2632C13.4554 10.1518 13.6448 10.0128 13.8952 9.87809Z" fill="#FF3347"/>
</svg>
